name rise38.3101peak57.3503fall81.6963.mot
datacolumns 19
datarows 14
range 8.09331100000000 8.11497100000000
endheader
time	ground_force1_vx	ground_force1_vy	ground_force1_vz	ground_force1_px	ground_force1_py	ground_force1_pz	ground_force2_vx	ground_force2_vy	ground_force2_vz	ground_force2_px	ground_force2_py	ground_force2_pz	ground_torque1_x	ground_torque1_y	ground_torque1_z	ground_torque2_x	ground_torque2_y	ground_torque2_z	
8.09331100000000	-48.01613300000000	804.94081200000005	57.05080700000000	0.13466900000000	0.00000000000000	0.11423900000000	-7.00662600000000	21.40400600000000	6.50614200000000	0.00000000000000	0.00000000000000	0.00000000000000	0.00000000000000	26.30761400000000	0.00000000000000	0.00000000000000	2.29377000000000	0.00000000000000	
8.09497300000000	-48.16399300000000	802.38504300000000	56.78648900000000	0.13419900000000	0.00000000000000	0.11419100000000	-8.44498700000000	27.12206200000000	8.02334100000000	0.34436000000000	0.00000000000000	-0.06672100000000	0.00000000000000	26.18096300000000	0.00000000000000	0.00000000000000	5.04979400000000	0.00000000000000	
8.09664300000000	-48.31399000000000	799.73170700000003	56.49643800000000	0.13374600000000	0.00000000000000	0.11413800000000	-9.83614100000000	33.16073400000000	9.55759400000000	0.35065300000000	0.00000000000000	-0.06747500000000	0.00000000000000	26.05092900000000	0.00000000000000	0.00000000000000	6.10805200000000	0.00000000000000	
8.09831100000000	-48.46706700000000	796.98172699999998	56.18067400000000	0.13330900000000	0.00000000000000	0.11407900000000	-11.12579400000000	39.39190100000000	11.06220500000000	0.35652300000000	0.00000000000000	-0.06818500000000	0.00000000000000	25.91777200000000	0.00000000000000	0.00000000000000	7.17317100000000	0.00000000000000	
8.09996900000000	-48.62415000000000	794.13599399999998	55.83927000000000	0.13288800000000	0.00000000000000	0.11401400000000	-12.26534000000000	45.69246100000000	12.49381600000000	0.36201000000000	0.00000000000000	-0.06885800000000	0.00000000000000	25.78175100000000	0.00000000000000	0.00000000000000	8.21619000000000	0.00000000000000	
8.10164200000000	-48.78614700000000	791.19535499999995	55.47234900000000	0.13248300000000	0.00000000000000	0.11394300000000	-13.21505700000000	51.95358000000000	13.81533800000000	0.36714700000000	0.00000000000000	-0.06950100000000	0.00000000000000	25.64311800000000	0.00000000000000	0.00000000000000	9.21122300000000	0.00000000000000	
8.10331200000000	-48.95394000000000	788.16060500000003	55.08008500000000	0.13209300000000	0.00000000000000	0.11386600000000	-13.94622800000000	58.08768100000000	14.99802600000000	0.37196400000000	0.00000000000000	-0.07011800000000	0.00000000000000	25.50212600000000	0.00000000000000	0.00000000000000	10.13705200000000	0.00000000000000	
8.10497400000000	-49.12838100000000	785.03247799999997	54.66269800000000	0.13171800000000	0.00000000000000	0.11378200000000	-14.44206900000000	64.03270300000000	16.02259500000000	0.37648500000000	0.00000000000000	-0.07071200000000	0.00000000000000	25.35901600000000	0.00000000000000	0.00000000000000	10.97812200000000	0.00000000000000	
8.10663900000000	-49.31028600000000	781.81163300000003	54.22045700000000	0.13135700000000	0.00000000000000	0.11369300000000	-14.69755600000000	69.75359899999999	16.87938400000000	0.38072900000000	0.00000000000000	-0.07128700000000	0.00000000000000	25.21402700000000	0.00000000000000	0.00000000000000	11.72492400000000	0.00000000000000	
8.10830800000000	-49.50042900000000	778.49865199999999	53.75367800000000	0.13100800000000	0.00000000000000	0.11359800000000	-14.71830600000000	75.24137800000000	17.56771000000000	0.38471700000000	0.00000000000000	-0.07184500000000	0.00000000000000	25.06738400000000	0.00000000000000	0.00000000000000	12.37381500000000	0.00000000000000	
8.10997100000000	-49.69953400000000	775.09402799999998	53.26272000000000	0.13067300000000	0.00000000000000	0.11349700000000	-14.51877800000000	80.51014400000000	18.09459100000000	0.38846300000000	0.00000000000000	-0.07239000000000	0.00000000000000	24.91930700000000	0.00000000000000	0.00000000000000	12.92638600000000	0.00000000000000	
8.11163900000000	-49.90827300000000	771.59815700000001	52.74798800000000	0.13034800000000	0.00000000000000	0.11338900000000	-14.12004300000000	85.59275500000000	18.47306000000000	0.39198200000000	0.00000000000000	-0.07292200000000	0.00000000000000	24.77000300000000	0.00000000000000	0.00000000000000	13.38849900000000	0.00000000000000	
8.11331000000000	-50.12725900000000	768.01133400000003	52.20992600000000	0.13003400000000	0.00000000000000	0.11327600000000	-13.54740100000000	90.53568400000000	18.72027000000000	0.39528700000000	0.00000000000000	-0.07344400000000	0.00000000000000	24.61966800000000	0.00000000000000	0.00000000000000	13.76913800000000	0.00000000000000	
8.11497100000000	-50.35703800000000	764.33374600000002	51.64902000000000	0.12973000000000	0.00000000000000	0.11315700000000	-12.82805100000000	95.39364000000000	18.85559900000000	0.39838800000000	0.00000000000000	-0.07395600000000	0.00000000000000	24.46848400000000	0.00000000000000	0.00000000000000	14.07919300000000	0.00000000000000	
